<svg version="1.1" id="Layer_1" xmlns="http://www.w3.org/2000/svg" xmlns:xlink="http://www.w3.org/1999/xlink" x="0px" y="0px"	 width="64px" height="64px" viewBox="0 0 64 64" enable-background="new 0 0 64 64" xml:space="preserve">
<g>
		<path id="path2830" d="M10.207,36.963l4.401,0.044l-0.153,19.599h29.292V37.078h4.638v24.287H10.183L10.207,36.963L10.207,36.963z"/>
		<rect id="rect3604" x="17.384" y="48.55" width="22.944" height="4.882"/>
		<rect id="rect3606" x="17.627" y="40.861" transform="matrix(-0.9954 -0.0961 0.0961 -0.9954 54.0215 89.3262)" width="23.067" height="5.004"/>
		<rect id="rect3606-1" x="18.909" y="32.867" transform="matrix(-0.9624 -0.2716 0.2716 -0.9624 50.1342 77.6775)" width="23.067" height="5.005"/>
		<rect id="rect3606-1-3" x="22.448" y="24.201" transform="matrix(-0.856 -0.517 0.517 -0.856 49.264 67.1307)" width="23.067" height="5.005"/>
		<rect id="rect3606-1-3-7" x="29.785" y="16.295" transform="matrix(-0.5824 -0.8129 0.8129 -0.5824 50.1031 63.3325)" width="23.067" height="5.004"/>
		<rect id="rect3606-1-3-7-6" x="40.14" y="12.153" transform="matrix(-0.1649 -0.9863 0.9863 -0.1649 45.7383 68.0375)" width="23.067" height="5.004"/>
</g>
</svg>
