<svg version="1.1" xmlns="http://www.w3.org/2000/svg" xmlns:xlink="http://www.w3.org/1999/xlink" width="256px" height="256px"
	 viewBox="61.133 107.633 256 256" enable-background="new 61.133 107.633 256 256" xml:space="preserve">
<g>
	<polygon fill="#535353" points="287.896,185.331 287.896,142.215 283.097,142.215 273.496,142.215 273.496,132.633 
		201.496,132.633 201.496,142.215 194.297,142.215 191.896,142.215 191.896,199.703 182.296,199.703 182.296,204.005 
		182.296,209.284 176.617,209.284 174.656,209.284 167.896,209.284 167.896,213.44 167.896,218.865 164.629,218.865 
		163.097,218.865 153.497,218.865 153.497,225.685 153.497,233.236 150.604,233.236 143.896,233.236 143.896,242.818 
		124.696,242.818 124.696,233.236 122.573,233.236 115.097,233.236 115.097,230.689 115.097,223.656 105.497,223.656 
		105.497,204.493 95.896,204.493 95.896,261.982 105.497,261.982 105.497,265.308 105.497,271.562 107.098,271.562 115.097,271.562 
		115.097,272.307 115.097,276.354 115.097,281.889 124.696,281.889 124.696,283.54 124.696,290.726 134.296,290.726 
		134.296,293.121 134.296,294.751 134.296,300.307 143.896,300.307 143.896,338.633 158.296,338.633 163.097,338.633 
		163.097,329.051 153.497,329.051 153.497,319.471 163.097,319.471 163.097,317.229 163.097,309.889 165.773,309.889 
		172.696,309.889 172.696,300.307 182.296,300.307 182.296,309.889 191.896,309.889 191.896,319.471 191.896,329.051 
		191.896,338.633 201.496,338.633 211.097,338.633 211.097,329.051 201.496,329.051 201.496,319.471 201.496,309.889 
		201.496,300.307 201.496,295.517 211.097,295.517 211.097,285.936 220.696,285.936 220.696,276.354 220.696,271.562 
		230.297,271.562 230.297,261.982 230.297,233.236 239.896,233.236 239.896,235.975 239.896,242.818 249.496,242.818 
		249.496,238.029 249.496,223.656 230.297,223.656 230.297,204.493 268.696,204.493 268.696,194.912 239.896,194.912 
		239.896,185.331 	"/>
	<path fill="none" stroke="#535353" stroke-width="4.8" stroke-linecap="square" d="M222.5,308.133h86.869"/>
	<path fill="none" stroke="#535353" stroke-width="4.8" stroke-linecap="square" d="M73.896,307.633h48"/>
	<path fill="none" stroke="#535353" stroke-width="4.8" stroke-linecap="square" d="	M109.896,321.633h18"/>
	<path fill="none" stroke="#535353" stroke-width="4.8" stroke-linecap="square" d="M68.896,332.633h18"/>
	<path fill="none" stroke="#535353" stroke-width="4.8" stroke-linecap="square" d="M284.896,332.633h6"/>
	<rect x="211.271" y="142.258" fill="#FFFFFF" width="10" height="10"/>
</g>
</svg>
