<svg version="1.1" id="Layer_1" xmlns="http://www.w3.org/2000/svg" xmlns:xlink="http://www.w3.org/1999/xlink" x="0px" y="0px" width="64px" height="64px" viewBox="0 0 64 64" enable-background="new 0 0 64 64" xml:space="preserve">
	<g>
		<path d="M55.975,13.846c2.854-1.751,4.743-4.144,5.668-7.185c-2.775,1.473-5.54,2.483-8.302,3.041
		c-2.485-2.67-5.628-4.027-9.397-4.027c-3.685,0-6.797,1.293-9.335,3.808c-2.526,2.532-3.802,5.609-3.802,9.201
		c0,1.092,0.139,2.066,0.414,2.894C20.356,21.207,11.363,16.699,4.276,8.025c-1.2,2.123-1.801,4.284-1.801,6.52
		c0,4.596,1.94,8.237,5.811,10.911c-2.208-0.187-4.154-0.745-5.811-1.66c0,3.281,0.965,6.021,2.896,8.435
		c1.94,2.389,4.43,3.91,7.472,4.56c-1.103,0.283-2.264,0.418-3.458,0.418c-1.102,0-1.882-0.092-2.345-0.293
		c0.813,2.673,2.345,4.842,4.561,6.502c2.207,1.667,4.746,2.546,7.6,2.624c-4.705,3.692-10.084,5.517-16.171,5.517
		c-1.49,0-2.546-0.021-3.186-0.133c5.995,3.893,12.667,5.824,20.049,5.824c7.555,0,14.231-1.915,20.042-5.743
		c5.812-3.807,10.1-8.505,12.854-14.036c2.77-5.525,4.14-11.276,4.14-17.28v-1.653c2.678-2.014,4.843-4.282,6.499-6.786
		C61.025,12.786,58.541,13.489,55.975,13.846z"/>
	</g>
</svg>